<svg id="briefcase" xmlns="http://www.w3.org/2000/svg" width="21.983" height="21.983" viewBox="0 0 21.983 21.983">
  <path id="Path_29" data-name="Path 29" d="M17.4,3.664H16.4A4.588,4.588,0,0,0,11.907,0H10.075A4.588,4.588,0,0,0,5.587,3.664H4.58A4.585,4.585,0,0,0,0,8.243v2.748H21.983V8.243a4.585,4.585,0,0,0-4.58-4.58Zm-9.907,0a2.748,2.748,0,0,1,2.579-1.832h1.832a2.748,2.748,0,0,1,2.579,1.832Z" fill="#6a6a6a"/>
  <path id="Path_30" data-name="Path 30" d="M11.907,14.916a.916.916,0,0,1-1.832,0V14H0v4.58a4.585,4.585,0,0,0,4.58,4.58H17.4a4.585,4.585,0,0,0,4.58-4.58V14H11.907Z" transform="translate(0 -1.177)" fill="#6a6a6a"/>
</svg>
