<svg xmlns="http://www.w3.org/2000/svg" width="18.889" height="19.564" viewBox="0 0 18.889 19.564">
  <g id="calendar" transform="translate(-2 -3)">
    <path id="Path_8" data-name="Path 8" d="M20.889,5.977V8.722H2V5.977A2,2,0,0,1,4.024,4H5.373V5.349a2.024,2.024,0,1,0,4.048,0V4h4.048V5.349a2.024,2.024,0,0,0,4.048,0V4h1.349a2,2,0,0,1,2.024,1.977Z" transform="translate(0 -0.325)" fill="#6a6a6a"/>
    <path id="Path_9" data-name="Path 9" d="M2,13V23.841a2,2,0,0,0,2.024,1.977H18.865a2,2,0,0,0,2.024-1.977V13Zm6.071,9.444a.677.677,0,0,1-.675.675H6.048a.677.677,0,0,1-.675-.675V21.1a.677.677,0,0,1,.675-.675H7.4a.677.677,0,0,1,.675.675Zm0-4.722A.677.677,0,0,1,7.4,18.4H6.048a.677.677,0,0,1-.675-.675V16.373a.677.677,0,0,1,.675-.675H7.4a.677.677,0,0,1,.675.675Zm4.722,4.722a.677.677,0,0,1-.675.675H10.77a.677.677,0,0,1-.675-.675V21.1a.677.677,0,0,1,.675-.675h1.349a.677.677,0,0,1,.675.675Zm0-4.722a.677.677,0,0,1-.675.675H10.77a.677.677,0,0,1-.675-.675V16.373a.677.677,0,0,1,.675-.675h1.349a.677.677,0,0,1,.675.675Zm4.722,0a.677.677,0,0,1-.675.675H15.492a.677.677,0,0,1-.675-.675V16.373a.677.677,0,0,1,.675-.675h1.349a.677.677,0,0,1,.675.675Z" transform="translate(0 -3.254)" fill="#6a6a6a"/>
    <path id="Path_10" data-name="Path 10" d="M10.349,3.675V5.024A.675.675,0,0,1,9,5.024V3.675a.675.675,0,0,1,1.349,0Z" transform="translate(-2.278 0)" fill="#6a6a6a"/>
    <path id="Path_11" data-name="Path 11" d="M22.349,3.675V5.024a.675.675,0,1,1-1.349,0V3.675a.675.675,0,1,1,1.349,0Z" transform="translate(-6.183 0)" fill="#6a6a6a"/>
  </g>
</svg>
