<svg xmlns="http://www.w3.org/2000/svg" width="18.483" height="18.484" viewBox="0 0 18.483 18.484">
  <g id="Layer_2_00000135689144841306197240000002351309762858272427_" transform="translate(0 0.025)">
    <g id="menu" transform="translate(0 -0.025)">
      <path id="Path_1" data-name="Path 1" d="M.686.871A2.3,2.3,0,0,1,2.325.2c.964,0,1.906,0,2.8,0H6.549a2.3,2.3,0,0,1,2.26,2.267c.025,1.491.025,2.877,0,4.231A2.312,2.312,0,0,1,6.48,9c-.7.011-1.412.014-2.1.014-2,.018-4.2.271-4.365-2.383.007-.776,0-1.542,0-2.314C.062,3.16-.253,1.749.686.871Z" transform="translate(0 -0.192)"/>
      <path id="Path_2" data-name="Path 2" d="M8.836,271.543c0,.765,0,1.56,0,2.339A2.368,2.368,0,0,1,6.5,276.316c-1.083-.025-2.253,0-3.35,0a2.988,2.988,0,0,1-2.437-.675,2.728,2.728,0,0,1-.675-2.217c0-1.188,0-2.415.007-3.625a2.279,2.279,0,0,1,1.7-2.195,17.842,17.842,0,0,1,2.848-.1c.6,0,1.2,0,1.805,0,2.495.13,2.524,2.047,2.444,4.036Z" transform="translate(-0.024 -257.838)"/>
      <path id="Path_3" data-name="Path 3" d="M275.552,269.349a4.4,4.4,0,1,1-6.224.007A4.416,4.416,0,0,1,275.552,269.349Z" transform="translate(-258.364 -258.384)"/>
      <path id="Path_4" data-name="Path 4" d="M267.639,6.435c-.018-1.469-.018-2.823,0-4.134a2.313,2.313,0,0,1,2.3-2.318h.029c1.383-.011,2.762-.011,4.206,0a2.309,2.309,0,0,1,2.256,2.264c.007.805,0,1.6,0,2.394-.04,1.155.249,2.589-.675,3.462-.942.986-2.505.614-3.726.69-.693,0-1.386,0-2.058-.014a2.327,2.327,0,0,1-2.336-2.321V6.435Z" transform="translate(-257.963 0.025)"/>
    </g>
  </g>
</svg>
