<svg xmlns="http://www.w3.org/2000/svg" width="20.072" height="20.072" viewBox="0 0 20.072 20.072">
  <path id="envelope-download" d="M12.332,5.256a.836.836,0,0,1,1.183.013l1.539,1.573V.836a.836.836,0,1,1,1.673,0V6.842l1.539-1.573a.837.837,0,0,1,1.2,1.171l-2.1,2.149A2.072,2.072,0,0,1,15.9,9.2a.033.033,0,0,1-.016,0,2.054,2.054,0,0,1-1.455-.6L12.319,6.44a.836.836,0,0,1,.013-1.183Zm-2.3,7.642a2.509,2.509,0,0,0,1.775-.733l1.958-1.958a3.758,3.758,0,0,1-.523-.43L11.123,7.611a2.509,2.509,0,0,1,.038-3.548c.4-.388,1.209-1.1,1.735-1.554H4.182A4.17,4.17,0,0,0,.622,4.525l7.639,7.64a2.509,2.509,0,0,0,1.775.733Zm8.518-3.14a3.636,3.636,0,0,1-3.048,1.076l-2.513,2.513a4.188,4.188,0,0,1-5.915,0L.038,6.308C.027,6.44,0,6.559,0,6.691v9.2a4.187,4.187,0,0,0,4.182,4.182H15.89a4.187,4.187,0,0,0,4.182-4.182V8.206Z"/>
</svg>
