<svg xmlns="http://www.w3.org/2000/svg" width="18.889" height="22.667" viewBox="0 0 18.889 22.667">
  <path id="file-medical-alt" d="M13.333,6.611V.434a6.59,6.59,0,0,1,2.328,1.5l3.29,3.292a6.567,6.567,0,0,1,1.5,2.327H14.278a.945.945,0,0,1-.944-.944Zm7.533,2.833H14.278a2.837,2.837,0,0,1-2.833-2.833V.023C11.292.012,11.14,0,10.986,0H6.722A4.728,4.728,0,0,0,2,4.722v8.5H5.745l1.608-2.413a.932.932,0,0,1,.844-.418.945.945,0,0,1,.787.52l2.105,4.211.986-1.479a.946.946,0,0,1,.786-.42h4.25a.944.944,0,1,1,0,1.889H13.366l-1.608,2.413a.945.945,0,0,1-.786.42c-.02,0-.04,0-.059,0a.945.945,0,0,1-.787-.52L8.022,13.212l-.986,1.479a.946.946,0,0,1-.786.42H2v2.833a4.728,4.728,0,0,0,4.722,4.722h9.444a4.728,4.728,0,0,0,4.722-4.722V9.9c0-.154-.012-.306-.023-.458Z" transform="translate(-2)" fill="#6a6a6a"/>
</svg>
