<svg xmlns="http://www.w3.org/2000/svg" width="21.004" height="21" viewBox="0 0 21.004 21">
  <path id="file-signature" d="M10.5.131A2.754,2.754,0,0,1,11.576.77l3.412,3.448A2.506,2.506,0,0,1,15.6,5.241H11.375a.878.878,0,0,1-.875-.875Zm7.07,10.955a2.011,2.011,0,0,1,2.844,2.844l-5.959,5.959A3.8,3.8,0,0,1,11.777,21H10.509V19.731a3.789,3.789,0,0,1,1.111-2.677L17.579,11.1ZM5.25,8.75a.878.878,0,0,0-.875.875,3.663,3.663,0,0,0,.989,2.1,4.17,4.17,0,0,0,.761-2.1A.878.878,0,0,0,5.25,8.75ZM15.75,7v3.43L10.377,15.8a5.515,5.515,0,0,0-1.6,3.439h-4.4A4.377,4.377,0,0,1,0,14.866V4.375A4.377,4.377,0,0,1,4.375,0H8.75V4.375A2.633,2.633,0,0,0,11.375,7Zm-4.375,4.813a1.312,1.312,0,1,0-2.625,0A1.73,1.73,0,0,0,9,12.679a1.678,1.678,0,0,1-1.129.446,2.562,2.562,0,0,1-1.137-.3,6,6,0,0,0,1.137-3.2,2.625,2.625,0,1,0-5.25,0,5.37,5.37,0,0,0,1.5,3.325,1.314,1.314,0,0,1-.621.175.875.875,0,0,0,0,1.75,3.357,3.357,0,0,0,2.012-.744,4.45,4.45,0,0,0,2.362.744A3.645,3.645,0,0,0,11.375,11.813Z"/>
</svg>
