<svg xmlns="http://www.w3.org/2000/svg" width="15.054" height="20.072" viewBox="0 0 15.054 20.072">
  <path id="notebook" d="M16.381,2.527V.836a.836.836,0,1,0-1.673,0v.92a4.182,4.182,0,0,0-.836-.084h-.836V.836a.836.836,0,1,0-1.673,0v.836H9.691V.836a.836.836,0,1,0-1.673,0v.836H7.182a4.182,4.182,0,0,0-.836.084V.836a.836.836,0,1,0-1.673,0V2.527A4.164,4.164,0,0,0,3,5.854V15.89a4.187,4.187,0,0,0,4.182,4.182h6.691a4.187,4.187,0,0,0,4.182-4.182V5.854a4.164,4.164,0,0,0-1.673-3.327Zm-5.854,11.69H7.182a.836.836,0,0,1,0-1.673h3.345a.836.836,0,0,1,0,1.673Zm3.345-3.345H7.182a.836.836,0,0,1,0-1.673h6.691a.836.836,0,0,1,0,1.673Zm0-3.345H7.182a.836.836,0,0,1,0-1.673h6.691a.836.836,0,0,1,0,1.673Z" transform="translate(-3)"/>
</svg>
