<svg xmlns="http://www.w3.org/2000/svg" width="22.983" height="22.983" viewBox="0 0 22.983 22.983">
  <g id="_97_Office_Building_Block_Apartment_Buildings_Hotel_Offices" data-name="97 Office Building, Block Apartment, Buildings, Hotel, Offices" transform="translate(-2 -2)">
    <path id="Path_12" data-name="Path 12" d="M3.642,8.566a.821.821,0,0,0-.821.821V22.52h4.1V8.566ZM6.1,20.058H4.462V18.416H6.1Zm0-3.283H4.462V15.133H6.1Zm0-3.283H4.462V11.85H6.1ZM23.341,8.566H20.058V22.52h4.1V9.387A.821.821,0,0,0,23.341,8.566ZM22.52,20.058H20.879V18.416H22.52Zm0-3.283H20.879V15.133H22.52Zm0-3.283H20.879V11.85H22.52ZM18.416,2H8.566a.821.821,0,0,0-.821.821v19.7H19.237V2.821A.821.821,0,0,0,18.416,2ZM12.671,20.058H11.029V18.416h1.642Zm0-3.283H11.029V15.133h1.642Zm0-3.283H11.029V11.85h1.642Zm0-3.283H11.029V8.566h1.642Zm0-3.283H11.029V5.283h1.642Zm3.283,13.133H14.312V18.416h1.642Zm0-3.283H14.312V15.133h1.642Zm0-3.283H14.312V11.85h1.642Zm0-3.283H14.312V8.566h1.642Zm0-3.283H14.312V5.283h1.642Zm9.029,18.058H2V23.341H24.983Z" fill="#6a6a6a"/>
  </g>
</svg>
