<svg xmlns="http://www.w3.org/2000/svg" width="19.598" height="19.633" viewBox="0 0 19.598 19.633">
  <path id="pen-clip" d="M16.557,6.5,5.055,18.088a2.478,2.478,0,0,1-2.822.474L1.4,19.4a.8.8,0,0,1-.581.237A.838.838,0,0,1,.237,19.4a.815.815,0,0,1,0-1.153l.834-.834a2.479,2.479,0,0,1,.474-2.831L11.772,4.3a2.523,2.523,0,0,0-2.683.515L6.61,7.3a.8.8,0,0,1-.581.237A.838.838,0,0,1,5.448,7.3a.815.815,0,0,1,0-1.153L7.927,3.665a4.071,4.071,0,0,1,2.9-1.194,4.03,4.03,0,0,1,2.61.965c.033,0,3.117,3.076,3.117,3.076ZM18.684.532a2.541,2.541,0,0,0-3.379.245L14.218,1.865l3.493,3.493L18.873,4.2A2.473,2.473,0,0,0,18.684.532Z" transform="translate(0.003 -0.001)"/>
</svg>
