<svg xmlns="http://www.w3.org/2000/svg" width="23.882" height="25.625" viewBox="0 0 23.882 25.625">
  <g id="phone-receiver-silhouette" transform="translate(-0.872 0)">
    <path id="Path_25" data-name="Path 25" d="M22.079,17.835c-1.548-1.324-3.119-2.126-4.648-.8l-.913.8c-.668.58-1.91,3.29-6.712-2.234S7.862,9.22,8.531,8.645l.918-.8c1.521-1.325.947-2.993-.15-4.71L8.637,2.1C7.535.382,6.335-.743,4.81.58l-.824.72A7.735,7.735,0,0,0,.971,6.419c-.55,3.638,1.185,7.8,5.16,12.375s7.857,6.87,11.539,6.83a7.756,7.756,0,0,0,5.486-2.272l.827-.721c1.521-1.322.576-2.668-.973-3.995Z" fill="#030104"/>
  </g>
</svg>
