<svg xmlns="http://www.w3.org/2000/svg" width="19.667" height="20.923" viewBox="0 0 19.667 20.923">
  <path id="setting" d="M41.871,20.482a2.193,2.193,0,0,1,0-3.8,1.582,1.582,0,0,0,.686-1.972,10.4,10.4,0,0,0-1.5-2.607A1.584,1.584,0,0,0,39,11.709a2.19,2.19,0,0,1-3.291-1.9,1.585,1.585,0,0,0-1.367-1.581,10.438,10.438,0,0,0-3.01,0A1.582,1.582,0,0,0,29.97,9.81a2.192,2.192,0,0,1-3.293,1.9,1.584,1.584,0,0,0-2.053.394,10.5,10.5,0,0,0-1.5,2.6,1.583,1.583,0,0,0,.684,1.975,2.193,2.193,0,0,1,0,3.8,1.581,1.581,0,0,0-.686,1.971,10.386,10.386,0,0,0,1.5,2.607,1.584,1.584,0,0,0,2.053.393,2.192,2.192,0,0,1,3.293,1.9,1.583,1.583,0,0,0,1.365,1.581,10.44,10.44,0,0,0,3.01,0,1.585,1.585,0,0,0,1.365-1.58A2.19,2.19,0,0,1,39,25.452a1.583,1.583,0,0,0,2.053-.394,10.478,10.478,0,0,0,1.5-2.6A1.582,1.582,0,0,0,41.871,20.482Zm-6.341-.347a3.107,3.107,0,0,1-4.245,1.137,3.108,3.108,0,1,1,4.245-1.137Z" transform="translate(-23.005 -8.119)" fill="#6a6a6a" fill-rule="evenodd"/>
</svg>
