<svg xmlns="http://www.w3.org/2000/svg" width="19.091" height="19.088" viewBox="0 0 19.091 19.088">
  <path id="Path_359" data-name="Path 359" d="M15.655,4.157a2.53,2.53,0,1,1,2.53,2.53,2.53,2.53,0,0,1-2.53-2.53Zm4.37,4.735V13.32a4.591,4.591,0,0,1-4.591,4.591H14.045a.92.92,0,0,0-.735.366L11.929,20.11a1.311,1.311,0,0,1-2.208,0l-1.38-1.831a1.023,1.023,0,0,0-.736-.368H6.225a4.6,4.6,0,0,1-4.6-4.6V6.917a4.6,4.6,0,0,1,4.6-4.6h7.226a.917.917,0,0,1,.895,1.1,4.01,4.01,0,0,0,.026,1.617,3.885,3.885,0,0,0,2.934,2.934A4.01,4.01,0,0,0,18.923,8a.917.917,0,0,1,1.1.895ZM8.065,10.6a.92.92,0,1,0-.92.92A.92.92,0,0,0,8.065,10.6Zm3.68,0a.92.92,0,1,0-.92.92A.92.92,0,0,0,11.745,10.6Zm3.68,0a.92.92,0,1,0-.92.92A.92.92,0,0,0,15.425,10.6Z" transform="translate(-1.625 -1.627)"/>
</svg>
