<svg xmlns="http://www.w3.org/2000/svg" width="16.843" height="22.437" viewBox="0 0 16.843 22.437">
  <path id="user-helmet-safety" d="M17.973,5.616h0a.936.936,0,0,1-.936.936H5.807a.936.936,0,0,1-.936-.936h0a.936.936,0,0,1,.936-.936h.022A5.155,5.155,0,0,1,10.486.023V2.809a.936.936,0,0,0,.936.936h0a.936.936,0,0,0,.936-.936V.023A5.157,5.157,0,0,1,17.015,4.68h.022a.936.936,0,0,1,.936.936ZM5.809,8.56a5.615,5.615,0,0,0,11.226,0l0-.137H5.807ZM19.837,21.409c-.388-3.411-4-6.434-8.415-6.434S3.4,18,3.008,21.409a.948.948,0,0,0,.227.736.935.935,0,0,0,.7.316H18.909a.936.936,0,0,0,.7-.316.948.948,0,0,0,.227-.736Z" transform="translate(-3.001 -0.023)" fill="#6a6a6a"/>
</svg>
