<svg xmlns="http://www.w3.org/2000/svg" width="20.524" height="13.212" viewBox="0 0 20.524 13.212">
  <g id="view" transform="translate(0 -82.176)">
    <g id="Group_81" data-name="Group 81" transform="translate(6.959 85.479)">
      <g id="Group_80" data-name="Group 80" transform="translate(0 0)">
        <path id="Path_357" data-name="Path 357" d="M159.719,156.416a3.3,3.3,0,1,0,3.3,3.3A3.305,3.305,0,0,0,159.719,156.416Zm-.251,2.323a.758.758,0,0,0-.752.752h-1.093a1.867,1.867,0,0,1,1.845-1.845Z" transform="translate(-156.416 -156.416)"/>
      </g>
    </g>
    <g id="Group_83" data-name="Group 83" transform="translate(0 82.176)">
      <g id="Group_82" data-name="Group 82" transform="translate(0 0)">
        <path id="Path_358" data-name="Path 358" d="M20.285,88.1c-1.116-1.39-5.1-5.923-10.023-5.923S1.355,86.709.239,88.1a1.1,1.1,0,0,0,0,1.367c1.116,1.39,5.1,5.923,10.023,5.923s8.907-4.533,10.023-5.923A1.1,1.1,0,0,0,20.285,88.1ZM10.262,93.566a4.784,4.784,0,1,1,4.784-4.784A4.783,4.783,0,0,1,10.262,93.566Z" transform="translate(0 -82.176)"/>
      </g>
    </g>
  </g>
</svg>
