<svg xmlns="http://www.w3.org/2000/svg" width="19.088" height="19.088" viewBox="0 0 19.088 19.088">
  <path id="_x30_8.Whatsapp" d="M19.544,10a9.552,9.552,0,0,0-7.73,15.151L10.5,28.61l3.794-1.1a9.442,9.442,0,0,0,5.249,1.575,9.544,9.544,0,0,0,0-19.088Zm5.082,13.5-1.026,1c-1.074,1.074-3.913-.1-6.418-2.625-2.505-2.505-3.627-5.345-2.625-6.394l1.026-1.026a1.038,1.038,0,0,1,1.432,0l1.5,1.5a.994.994,0,0,1-.382,1.646.966.966,0,0,0-.644,1.169,4.582,4.582,0,0,0,2.792,2.768,1,1,0,0,0,1.169-.644.994.994,0,0,1,1.646-.382l1.5,1.5A1.125,1.125,0,0,1,24.626,23.5Z" transform="translate(-10 -10)"/>
</svg>
