<svg xmlns="http://www.w3.org/2000/svg" width="11" height="8.333" viewBox="0 0 11 8.333">
  <g id="Group_86" data-name="Group 86" transform="translate(-1549 -789.834)">
    <path id="Down_Arrow_3_" d="M23.666,44a.332.332,0,0,1-.236-.1L20.1,40.569a.333.333,0,0,1,.471-.471l3.1,3.1,3.1-3.1a.333.333,0,1,1,.471.471L23.9,43.9A.332.332,0,0,1,23.666,44Z" transform="translate(1509.5 817.667) rotate(-90)" fill="#04589a" stroke="#04589a" stroke-width="1"/>
    <path id="Down_Arrow_3_2" data-name="Down_Arrow_3_" d="M23.666,44a.332.332,0,0,1-.236-.1L20.1,40.569a.333.333,0,0,1,.471-.471l3.1,3.1,3.1-3.1a.333.333,0,1,1,.471.471L23.9,43.9A.332.332,0,0,1,23.666,44Z" transform="translate(1515.5 817.667) rotate(-90)" fill="#04589a" stroke="#04589a" stroke-width="1"/>
  </g>
</svg>
