<svg xmlns="http://www.w3.org/2000/svg" width="45" height="45" viewBox="0 0 45 45">
  <path id="building" d="M20.625,0h-15A5.625,5.625,0,0,0,0,5.625V45H26.25V5.625A5.625,5.625,0,0,0,20.625,0ZM11.25,35.625H5.625v-3.75H11.25Zm0-7.5H5.625v-3.75H11.25Zm0-7.5H5.625v-3.75H11.25Zm0-7.5H5.625V9.375H11.25Zm9.375,22.5H15v-3.75h5.625Zm0-7.5H15v-3.75h5.625Zm0-7.5H15v-3.75h5.625Zm0-7.5H15V9.375h5.625Zm18.75-3.75H30V45H45V15A5.625,5.625,0,0,0,39.375,9.375Zm0,26.25h-3.75v-3.75h3.75Zm0-7.5h-3.75v-3.75h3.75Zm0-7.5h-3.75v-3.75h3.75Z"/>
</svg>
