<svg xmlns="http://www.w3.org/2000/svg" width="42.474" height="42.553" viewBox="0 0 42.474 42.553">
  <path id="phone-call_1_" data-name="phone-call (1)" d="M40.744,19.5a1.773,1.773,0,0,1-1.773-1.773A14.2,14.2,0,0,0,24.79,3.547,1.773,1.773,0,1,1,24.79,0,17.746,17.746,0,0,1,42.516,17.728,1.773,1.773,0,0,1,40.744,19.5Zm-5.318-1.773A10.636,10.636,0,0,0,24.79,7.092a1.773,1.773,0,1,0,0,3.545,7.091,7.091,0,0,1,7.091,7.091,1.773,1.773,0,1,0,3.545,0ZM39.3,39.29l1.613-1.859a5.5,5.5,0,0,0,0-7.759c-.055-.055-4.32-3.336-4.32-3.336A5.5,5.5,0,0,0,29,26.346l-3.379,2.847A22.661,22.661,0,0,1,13.333,16.884l2.836-3.368a5.5,5.5,0,0,0,.012-7.59s-3.285-4.26-3.34-4.315a5.463,5.463,0,0,0-7.668-.082L3.135,3.3C-2.9,10.3.6,20.254,7.583,28.591c6.608,7.893,16.674,14.184,23.876,13.954A10.911,10.911,0,0,0,39.3,39.29Z" transform="translate(-0.043 0.002)"/>
</svg>
