<svg xmlns="http://www.w3.org/2000/svg" width="12.77" height="15.608" viewBox="0 0 12.77 15.608">
  <g id="delete" transform="translate(-3 -1)">
    <path id="Path_443" data-name="Path 443" d="M14.641,7a.709.709,0,0,0-.709.709v7.939a1.362,1.362,0,0,1-1.426,1.283H6.845a1.362,1.362,0,0,1-1.426-1.283V7.709A.709.709,0,0,0,4,7.709v7.939a2.78,2.78,0,0,0,2.845,2.7h5.661a2.779,2.779,0,0,0,2.845-2.7V7.709A.709.709,0,0,0,14.641,7Z" transform="translate(-0.291 -1.743)" fill="#6a6a6a"/>
    <path id="Path_444" data-name="Path 444" d="M15.06,3.128H12.222V1.709A.709.709,0,0,0,11.513,1H7.257a.709.709,0,0,0-.709.709V3.128H3.709a.709.709,0,0,0,0,1.419H15.06a.709.709,0,0,0,0-1.419Zm-7.094,0V2.419H10.8v.709Z" fill="#6a6a6a"/>
    <path id="Path_445" data-name="Path 445" d="M10.419,14.675V9.709A.709.709,0,0,0,9,9.709v4.966a.709.709,0,0,0,1.419,0Z" transform="translate(-1.743 -2.325)" fill="#6a6a6a"/>
    <path id="Path_446" data-name="Path 446" d="M14.419,14.675V9.709a.709.709,0,0,0-1.419,0v4.966a.709.709,0,0,0,1.419,0Z" transform="translate(-2.906 -2.325)" fill="#6a6a6a"/>
  </g>
</svg>
