<svg id="key" xmlns="http://www.w3.org/2000/svg" width="21.802" height="21.79" viewBox="0 0 21.802 21.79">
  <path id="Path_157" data-name="Path 157" d="M20.885,1.057a3.142,3.142,0,0,0-4.419,0A3.1,3.1,0,0,0,15.772,2.1a3.143,3.143,0,0,0-4.126.256,3.1,3.1,0,0,0,1.107,5.111L.189,19.977a.638.638,0,0,0,0,.906l.833.87a.638.638,0,0,0,.9,0l1.933-2.009,1.593,1.583a.638.638,0,0,0,.9-.906l-.439-.436L6.7,19.2l0,0,.445.442a.638.638,0,0,0,.9-.906L6.453,17.162l8.015-7.944a3.124,3.124,0,1,0,5.37-3.074,3.1,3.1,0,0,0,1.047-5.088Zm-8.88,3.5a1.814,1.814,0,0,1,.54-1.3,1.862,1.862,0,0,1,2.619,0,1.823,1.823,0,0,1,0,2.591,1.862,1.862,0,0,1-2.619,0,1.814,1.814,0,0,1-.54-1.3Zm6.67,4.785a1.862,1.862,0,0,1-2.619,0,1.823,1.823,0,0,1,0-2.591,1.862,1.862,0,0,1,2.619,0,1.823,1.823,0,0,1,0,2.591Zm1.31-4.791a1.862,1.862,0,0,1-2.619,0,1.823,1.823,0,0,1,0-2.591,1.862,1.862,0,0,1,2.619,0,1.823,1.823,0,0,1,0,2.591Z" transform="translate(0 -0.149)" fill="#6a6a6a"/>
</svg>
