<svg xmlns="http://www.w3.org/2000/svg" width="45.002" height="45.002" viewBox="0 0 45.002 45.002">
  <path id="envelope-dot" d="M37.5,15A7.5,7.5,0,1,1,45,7.5,7.5,7.5,0,0,1,37.5,15Zm-15,13.913a5.547,5.547,0,0,0,3.975-1.65l8.757-8.757A11.265,11.265,0,0,1,26.251,7.482a12.446,12.446,0,0,1,.169-1.875H9.375a9.349,9.349,0,0,0-7.988,4.519L18.526,27.282a5.624,5.624,0,0,0,3.975,1.65ZM40.8,18.244,29.12,29.926a9.416,9.416,0,0,1-13.275,0L.094,14.138C.075,14.419,0,14.7,0,15V35.626A9.379,9.379,0,0,0,9.375,45H35.626A9.379,9.379,0,0,0,45,35.626l-.038-19.744A11.335,11.335,0,0,1,40.8,18.244Z"/>
</svg>
