<svg xmlns="http://www.w3.org/2000/svg" width="39.43" height="44.691" viewBox="0 0 39.43 44.691">
  <g id="megaphone" transform="translate(-30.136)">
    <g id="Group_54" data-name="Group 54" transform="translate(46.374 0.358)">
      <g id="Group_53" data-name="Group 53">
        <path id="Path_233" data-name="Path 233" d="M238.064,22.3,220.634,4.865a2.62,2.62,0,1,0-3.705,3.7L234.361,26a2.618,2.618,0,1,0,3.7-3.7Z" transform="translate(-216.163 -4.1)"/>
      </g>
    </g>
    <g id="Group_56" data-name="Group 56" transform="translate(39.507 7.237)">
      <g id="Group_55" data-name="Group 55">
        <path id="Path_234" data-name="Path 234" d="M143.833,82.9l-.131.658a28.147,28.147,0,0,1-6.208,12.573l9.484,9.484a28.053,28.053,0,0,1,12.513-6.269l.659-.131Z" transform="translate(-137.494 -82.905)"/>
      </g>
    </g>
    <g id="Group_58" data-name="Group 58" transform="translate(30.136 22.432)">
      <g id="Group_57" data-name="Group 57" transform="translate(0)">
        <path id="Path_235" data-name="Path 235" d="M37.768,256.989l-6.481,6.48a3.927,3.927,0,0,0,0,5.556l3.7,3.7a3.928,3.928,0,0,0,5.556,0l6.481-6.481Zm.926,10.184a1.309,1.309,0,0,1-1.851-1.851l1.851-1.851a1.309,1.309,0,1,1,1.851,1.851Z" transform="translate(-30.136 -256.989)"/>
      </g>
    </g>
    <g id="Group_60" data-name="Group 60" transform="translate(44.248 30.208)">
      <g id="Group_59" data-name="Group 59" transform="translate(0)">
        <path id="Path_236" data-name="Path 236" d="M200.058,354.734l1.781-1.781a3.925,3.925,0,0,0,0-5.554l-1.323-1.324a24.791,24.791,0,0,0-2.108,1.594l1.58,1.582a1.306,1.306,0,0,1,0,1.85l-1.811,1.811-2.661-2.578-3.7,3.7,5.941,5.756a2.619,2.619,0,0,0,3.7-3.706Z" transform="translate(-191.813 -346.075)"/>
      </g>
    </g>
    <g id="Group_62" data-name="Group 62" transform="translate(56.473)">
      <g id="Group_61" data-name="Group 61">
        <path id="Path_237" data-name="Path 237" d="M333.173,0a1.309,1.309,0,0,0-1.309,1.309V3.928a1.309,1.309,0,0,0,2.619,0V1.309A1.309,1.309,0,0,0,333.173,0Z" transform="translate(-331.864)"/>
      </g>
    </g>
    <g id="Group_64" data-name="Group 64" transform="translate(64.329 10.475)">
      <g id="Group_63" data-name="Group 63" transform="translate(0)">
        <path id="Path_238" data-name="Path 238" d="M425.792,120h-2.619a1.309,1.309,0,1,0,0,2.619h2.619a1.309,1.309,0,0,0,0-2.619Z" transform="translate(-421.864 -120)"/>
      </g>
    </g>
    <g id="Group_66" data-name="Group 66" transform="translate(61.71 2.619)">
      <g id="Group_65" data-name="Group 65">
        <path id="Path_239" data-name="Path 239" d="M396.717,30.383a1.309,1.309,0,0,0-1.851,0L392.247,33a1.309,1.309,0,0,0,1.851,1.851l2.619-2.619A1.309,1.309,0,0,0,396.717,30.383Z" transform="translate(-391.864 -30)"/>
      </g>
    </g>
  </g>
</svg>
