<svg xmlns="http://www.w3.org/2000/svg" width="16.126" height="16.271" viewBox="0 0 16.126 16.271">
  <path id="settings" d="M14.272,8.135a6.2,6.2,0,0,0-.1-1.115l2.063-1.19L14.2,2.305,12.135,3.5A6.1,6.1,0,0,0,10.2,2.382V0H6.136V2.382A6.1,6.1,0,0,0,4.2,3.5L2.141,2.305.107,5.83,2.17,7.02a6.169,6.169,0,0,0,0,2.23L.107,10.441l2.034,3.525L4.2,12.774a6.1,6.1,0,0,0,1.931,1.115v2.382H10.2V13.889a6.1,6.1,0,0,0,1.931-1.116L14.2,13.966l2.034-3.525L14.17,9.251a6.2,6.2,0,0,0,.1-1.115Zm-4.068,0A2.034,2.034,0,1,1,8.17,6.1,2.034,2.034,0,0,1,10.2,8.135Z" transform="translate(-0.107)" fill="#6a6a6a"/>
</svg>
