<svg xmlns="http://www.w3.org/2000/svg" width="36.939" height="46.691" viewBox="0 0 36.939 46.691">
  <path id="user-headset" d="M38.478,41.828v4.864H3.46V41.828a8.765,8.765,0,0,1,8.755-8.755H29.723A8.765,8.765,0,0,1,38.478,41.828ZM10.992,7.834A14.539,14.539,0,0,1,21.945,3.922c7.634.494,13.616,7.138,13.616,15.124a6.249,6.249,0,0,1-6.243,6.243H24.638a3.881,3.881,0,1,0-1.023,3.891h5.7A10.146,10.146,0,0,0,39.453,19.046C39.451,9.015,31.871.665,22.194.041A18.306,18.306,0,0,0,8.331,5,18.55,18.55,0,0,0,2.514,17.511h3.9a14.435,14.435,0,0,1,4.582-9.675ZM27,21.4h2.661a1.94,1.94,0,0,0,1.94-1.685,10.984,10.984,0,0,0-.177-3.562A10.7,10.7,0,1,0,13.23,25.859h0A7.729,7.729,0,0,1,27,21.4Z" transform="translate(-2.514 0)"/>
</svg>
