<svg xmlns="http://www.w3.org/2000/svg" width="45.554" height="45.753" viewBox="0 0 45.554 45.753">
  <g id="whatsapp_1_" data-name="whatsapp (1)" transform="translate(0 0.001)">
    <path id="Path_158" data-name="Path 158" d="M.974,45.753a.974.974,0,0,1-.939-1.23L3.009,33.661a22.687,22.687,0,1,1,19.86,11.716h-.01a22.732,22.732,0,0,1-10.5-2.578L1.221,45.721a.979.979,0,0,1-.247.032Zm0,0" transform="translate(0)" fill="#e5e5e5"/>
    <path id="Path_159" data-name="Path 159" d="M10.894,54.7l3.08-11.248A21.714,21.714,0,1,1,32.789,54.325H32.78A21.694,21.694,0,0,1,22.4,51.683Zm12.043-6.948.659.391a18.022,18.022,0,0,0,9.185,2.515h.007A18.045,18.045,0,1,0,17.5,42.2l.429.683-1.824,6.657Zm0,0" transform="translate(-9.921 -9.922)" fill="#fff"/>
    <path id="Path_160" data-name="Path 160" d="M19.344,61.673l2.974-10.859a20.961,20.961,0,1,1,18.163,10.5h-.009a20.957,20.957,0,0,1-10.016-2.55Zm0,0" transform="translate(-17.615 -17.651)" fill="#64b161"/>
    <g id="Group_52" data-name="Group 52" transform="translate(0.974 0.973)">
      <path id="Path_161" data-name="Path 161" d="M10.894,54.7l3.08-11.248A21.714,21.714,0,1,1,32.789,54.325H32.78A21.694,21.694,0,0,1,22.4,51.683Zm12.043-6.948.659.391a18.022,18.022,0,0,0,9.185,2.515h.007A18.045,18.045,0,1,0,17.5,42.2l.429.683-1.824,6.657Zm0,0" transform="translate(-10.894 -10.895)" fill="#fff"/>
      <path id="Path_162" data-name="Path 162" d="M138.052,142.563c-.406-.9-.834-.922-1.221-.937-.316-.014-.678-.013-1.04-.013a1.994,1.994,0,0,0-1.447.679,6.081,6.081,0,0,0-1.9,4.525c0,2.67,1.944,5.249,2.216,5.611s3.753,6.015,9.267,8.189c4.583,1.807,5.515,1.448,6.51,1.358s3.21-1.312,3.662-2.579a4.53,4.53,0,0,0,.317-2.58c-.136-.226-.5-.362-1.04-.633s-3.21-1.584-3.707-1.765-.859-.271-1.221.272-1.4,1.764-1.717,2.126-.633.408-1.176.136a14.834,14.834,0,0,1-4.363-2.693,16.347,16.347,0,0,1-3.018-3.757c-.316-.542-.005-.811.238-1.107a16.364,16.364,0,0,0,1.356-1.855,1,1,0,0,0-.045-.951C139.589,146.319,138.534,143.636,138.052,142.563Zm0,0" transform="translate(-121.584 -129.932)" fill="#fff" fill-rule="evenodd"/>
    </g>
  </g>
</svg>
